<svg width="129" height="26" viewBox="0 0 129 26" fill="none" xmlns="http://www.w3.org/2000/svg">
<path d="M0.712341 24.999H9.32534L9.40902 15.5944H22.444L22.3603 24.999H30.9733L31.1836 1.37198H22.5706L22.496 9.75365H9.46099L9.53556 1.37198H0.922558L0.712341 24.999Z" fill="white"/>
<path d="M48.0825 25.527C52.6365 25.527 57.0016 24.5041 59.3248 23.0191L57.2127 19.3233C55.4549 20.3132 52.0494 21.0392 48.6834 21.0392C45.4824 21.0392 42.5195 20.2472 41.6461 18.2673H59.4661C59.6361 17.7063 59.7085 16.9804 59.7129 16.4854C59.7617 11.0076 54.6787 7.41074 46.9237 7.41074C39.0367 7.41074 33.4925 11.1396 33.4452 16.4524C33.3959 21.9962 39.3045 25.527 48.0825 25.527ZM41.5437 14.9344C41.8578 13.0205 44.0148 11.6676 46.8198 11.6676C49.5588 11.6676 51.7911 12.9875 51.8727 14.9344H41.5437Z" fill="white"/>
<path d="M61.9673 24.999H69.7883L70.0073 0.382019H62.1863L61.9673 24.999Z" fill="white"/>
<path d="M72.4409 24.999H80.2619L80.481 0.382019H72.66L72.4409 24.999Z" fill="white"/>
<path d="M96.0109 25.527C104.294 25.527 109.738 21.9632 109.786 16.4854C109.835 11.0076 104.455 7.41074 96.1721 7.41074C87.9221 7.41074 82.4781 11.0076 82.4293 16.4854C82.3806 21.9632 87.7609 25.527 96.0109 25.527ZM96.0514 20.9732C92.4874 20.9732 90.1932 19.1913 90.2173 16.4854C90.2414 13.7795 92.5672 11.9976 96.1312 11.9976C99.6952 11.9976 101.989 13.7795 101.965 16.4854C101.941 19.1913 99.6154 20.9732 96.0514 20.9732Z" fill="white"/>
<path d="M121.912 16.5844H126.499L128.227 7.83972L128.284 1.37198H120.397L120.34 7.83972L121.912 16.5844ZM124.144 25.362C126.652 25.362 128.481 23.8111 128.5 21.6662C128.519 19.4883 126.718 17.9703 124.21 17.9703C121.702 17.9703 119.873 19.4883 119.854 21.6662C119.835 23.8111 121.636 25.362 124.144 25.362Z" fill="white"/>
</svg>
