<svg width="119" height="27" viewBox="0 0 119 27" fill="none" xmlns="http://www.w3.org/2000/svg">
<path d="M20.0253 19.6212L19.5794 19.4925C18.4645 19.1577 18.3654 18.926 18.3654 15.836V12.7203C18.8609 11.0981 19.951 10.8663 21.0163 10.8663C21.8091 10.8663 22.4532 11.0208 23.2955 11.2783L23.7167 11.0208C24.0388 10.5316 24.237 10.0681 24.237 9.29562C24.237 7.87939 23.4442 6.77215 22.0816 6.77215C20.1492 6.77215 19.1087 8.26563 18.3654 11.4586C18.3654 10.0939 18.415 8.16263 18.4645 7.0039L18.2168 6.77215C16.1853 7.18414 14.4015 7.26139 11.6268 7.26139V8.05964L11.8497 8.11113C12.6177 8.29138 12.6177 8.85787 12.6177 12.9006V15.836C12.6177 18.9775 12.7168 19.338 11.8249 19.5697L11.6268 19.6212V20.4195C14.3272 20.2907 17.3497 20.2907 20.0253 20.4195V19.6212Z" fill="#101011"/>
<path d="M33.5336 18.1277C33.6079 19.2865 33.8061 20.2135 33.9795 20.78C36.0606 20.2907 38.216 19.9302 40.2227 19.6985V18.9002L39.8016 18.7715C39.2813 18.617 39.2317 18.1535 39.2317 14.7288V12.2568C39.2317 10.9178 39.2565 8.42013 39.3308 7.0039L39.0831 6.77215C37.0516 7.18414 35.2678 7.26139 32.4931 7.26139V8.05964L32.716 8.11113C33.4841 8.29138 33.4841 8.85787 33.4841 12.9006V17.278C33.2115 17.587 32.8647 17.793 32.5178 17.793C31.7498 17.793 31.3039 17.0978 31.3039 15.3983V12.3856C31.3039 11.0208 31.3287 8.44588 31.403 7.0039L31.1553 6.77215C29.1237 7.18414 27.34 7.26139 24.5652 7.26139V8.05964L24.7882 8.11113C25.5562 8.29138 25.5562 8.85787 25.5562 12.9006V16.3253C25.5562 19.5697 27.34 20.8314 29.4458 20.8314C31.403 20.8314 32.7904 19.8015 33.5336 18.1277Z" fill="#101011"/>
<path d="M46.5269 19.9302C44.7679 19.9302 43.1328 18.2822 41.6958 16.042H41.0765C41.126 17.381 41.126 18.5655 41.0765 19.7242C42.5382 20.3422 44.1733 20.8314 46.1305 20.8314C49.9457 20.8314 52.2993 19.235 52.2993 16.351C52.2993 13.9306 50.6394 12.5658 48.9548 11.6646C46.6755 10.4544 45.3872 9.60461 45.3872 8.54888C45.3872 7.95664 45.7341 7.64764 46.2791 7.64764C47.8151 7.64764 49.5246 9.70761 50.5403 11.3298H51.1597C51.0854 10.2226 51.0606 8.72913 51.0606 8.03389C49.921 7.28715 48.6079 6.77215 46.7251 6.77215C43.2071 6.77215 40.9774 8.65188 40.9774 11.2526C40.9774 13.3898 42.34 14.6258 43.8512 15.527C46.2543 16.9433 47.6913 17.7672 47.6913 19.0547C47.6913 19.6727 47.1462 19.9302 46.5269 19.9302Z" fill="#101011"/>
<path d="M52.7511 7.41589V8.29138H54.188V15.7845C54.188 19.3122 55.9222 20.8314 58.3253 20.8314C60.2577 20.8314 61.5956 19.9045 62.8343 17.7415L62.4627 17.3038C62.0415 17.6128 61.6451 17.7673 61.1744 17.7673C60.3073 17.7673 59.9357 17.2008 59.9357 15.4755V8.29138H65.0043V7.26139H59.9357V3.34745L59.3163 3.1672C58.782 3.57699 57.7224 4.92769 56.316 5.82428C54.6987 6.85538 52.7511 7.41589 52.7511 7.41589Z" fill="#101011"/>
<path d="M69.9968 15.836V8.29138H72.177V7.26139H69.9968V4.63493C69.9968 2.88396 70.0712 2.05997 70.4923 2.05997C71.1117 2.05997 71.5328 4.14569 71.6319 5.76792L72.1027 5.92242C73.4652 5.84517 74.2828 5.27867 74.2828 4.17144C74.2828 2.83246 72.8954 1.28748 70.4923 1.28748C66.7514 1.28748 64.5217 3.99119 64.2739 7.26139H64.2491L63.0104 7.41589V8.29138H64.2491V15.836H69.9968Z" fill="#101011"/>
<path d="M72.6713 13.8533C72.6713 17.896 75.3717 20.8314 79.7073 20.8314C83.7703 20.8314 87.0157 18.1535 87.0157 13.7503C87.0157 9.70761 84.3401 6.77215 80.0045 6.77215C75.9415 6.77215 72.6713 9.45011 72.6713 13.8533ZM81.2681 16.9175C81.2681 18.7972 80.9955 19.8272 80.4753 19.8272C79.41 19.8272 78.4438 14.497 78.4438 10.6861C78.4438 8.80637 78.7163 7.77639 79.2365 7.77639C80.3018 7.77639 81.2681 13.0808 81.2681 16.9175Z" fill="#101011"/>
<path d="M88.8525 15.836C88.8525 19.0032 88.8278 19.441 88.2827 19.544L87.8615 19.6212V20.4195C90.3885 20.2907 93.089 20.2907 95.5912 20.4195V19.6212L95.17 19.544C94.625 19.441 94.6002 19.0032 94.6002 15.836V6.77215C94.6002 5.43317 94.625 2.93546 94.6993 1.51923L94.4516 1.28748C92.4201 1.69948 90.6363 1.77672 87.8615 1.77672V2.57496L88.0845 2.62646C88.8525 2.80671 88.8525 3.3732 88.8525 7.41589V15.836Z" fill="#101011"/>
<path d="M103.121 3.01271C103.121 1.28748 101.808 0 100.049 0C98.2901 0 96.977 1.28748 96.977 3.01271C96.977 4.73793 98.2901 6.02541 100.049 6.02541C101.833 6.02541 103.121 4.73793 103.121 3.01271ZM97.1752 15.836C97.1752 19.0032 97.1504 19.441 96.6054 19.544L96.1842 19.6212V20.4195C98.7112 20.2907 101.412 20.2907 103.914 20.4195V19.6212L103.493 19.544C102.948 19.441 102.923 19.0032 102.923 15.836V12.2568C102.923 10.9178 102.948 8.42013 103.022 7.0039L102.774 6.77215C100.743 7.18414 98.959 7.26139 96.1842 7.26139V8.05964L96.4072 8.11113C97.1752 8.29138 97.1752 8.85787 97.1752 12.9006V15.836Z" fill="#101011"/>
<path d="M104.656 13.8533C104.656 17.896 107.356 20.8314 111.692 20.8314C115.755 20.8314 119 18.1535 119 13.7503C119 9.70761 116.324 6.77215 111.989 6.77215C107.926 6.77215 104.656 9.45011 104.656 13.8533ZM113.252 16.9175C113.252 18.7972 112.98 19.8272 112.46 19.8272C111.394 19.8272 110.428 14.497 110.428 10.6861C110.428 8.80637 110.701 7.77639 111.221 7.77639C112.286 7.77639 113.252 13.0808 113.252 16.9175Z" fill="#101011"/>
<path d="M69.9968 21.9531C69.9968 25.4808 68.2626 27 65.8595 27C63.9271 27 62.5892 26.073 61.3505 23.91L61.7221 23.4723C62.1433 23.7813 62.5397 23.9358 63.0104 23.9358C63.8775 23.9358 64.2491 23.3693 64.2491 21.6441C64.2491 18.5021 64.2491 15.836 64.2491 15.836H69.9968C69.9968 15.836 69.9968 18.7203 69.9968 21.9531Z" fill="#101011"/>
<path d="M0 7.59614V8.47163H1.43693V15.9648C1.43693 19.4925 3.17114 21.0117 5.57427 21.0117C7.50668 21.0117 8.84449 20.0847 10.0832 17.9217L9.71161 17.484C9.29044 17.793 8.89405 17.9475 8.42333 17.9475C7.55622 17.9475 7.18461 17.381 7.18461 15.6558V8.47163H9.8653V7.44164H7.18461V3.5277L6.56524 3.34745C6.03091 3.75724 4.97136 5.10794 3.56499 6.00453C1.94765 7.03563 0 7.59614 0 7.59614Z" fill="#101011"/>
</svg>
