<?xml version="1.0" standalone="no"?>
<!DOCTYPE svg PUBLIC "-//W3C//DTD SVG 20010904//EN"
 "http://www.w3.org/TR/2001/REC-SVG-20010904/DTD/svg10.dtd">
<svg version="1.0" xmlns="http://www.w3.org/2000/svg"
 width="260.000000pt" height="260.000000pt" viewBox="0 0 260.000000 260.000000"
 preserveAspectRatio="xMidYMid meet">
<metadata>
Created by potrace 1.14, written by Peter Selinger 2001-2017
</metadata>
<g transform="translate(0.000000,260.000000) scale(0.100000,-0.100000)"
fill="#000000" stroke="none">
<path d="M703 2363 c-44 -60 -146 -200 -228 -313 -81 -113 -175 -241 -207
-285 -32 -44 -89 -123 -126 -175 -38 -52 -85 -118 -105 -146 l-37 -51 62 -49
c34 -27 70 -55 79 -62 16 -11 24 -4 76 67 32 44 65 89 73 101 14 21 65 91 185
255 102 139 181 248 225 311 25 34 87 120 138 189 50 69 92 130 92 134 0 5
-33 36 -74 70 l-74 61 -79 -107z"/>
<path d="M1740 2405 c-36 -30 -65 -60 -64 -67 1 -7 68 -105 149 -218 82 -113
186 -257 232 -320 45 -63 86 -119 91 -125 4 -5 70 -97 146 -203 77 -106 142
-194 145 -197 4 -2 41 24 84 57 l76 60 -37 54 c-171 245 -736 1014 -745 1013
-7 0 -41 -24 -77 -54z"/>
<path d="M1219 2230 c-10 -8 -162 -215 -340 -460 -177 -245 -335 -463 -351
-485 -16 -22 -65 -89 -109 -150 -44 -60 -95 -130 -113 -155 -19 -25 -95 -129
-169 -233 l-136 -187 72 -60 c40 -33 77 -60 83 -60 7 0 20 12 29 28 10 15 52
74 95 132 42 58 180 247 305 420 126 173 243 335 261 360 76 104 320 440 334
460 65 94 113 155 122 155 5 0 44 -48 86 -107 452 -628 1049 -1447 1056 -1448
5 0 41 26 80 57 39 31 72 57 74 59 3 2 -183 261 -245 344 -11 14 -185 255
-388 535 -203 281 -416 575 -474 655 -57 80 -105 146 -106 148 -2 1 -35 4 -76
5 -53 2 -78 -2 -90 -13z"/>
<path d="M1099 1236 c-68 -94 -129 -178 -136 -186 -7 -8 -62 -85 -124 -170
-62 -85 -188 -260 -282 -388 -163 -225 -168 -234 -151 -250 54 -49 139 -110
145 -104 3 4 66 90 140 192 73 102 184 255 246 340 62 85 123 170 135 188 13
18 28 39 33 45 6 7 50 67 99 135 49 67 91 124 95 126 3 2 175 -229 381 -514
l374 -518 59 46 c32 26 68 54 79 63 20 16 18 19 -113 200 -73 101 -196 272
-274 379 -77 107 -205 284 -283 392 l-142 197 -79 -2 -79 -1 -123 -170z"/>
</g>
</svg>
